<svg xmlns="http://www.w3.org/2000/svg" width="20" height="20" viewBox="0 0 20 20"><g clip-path="url(#clip0_235_623)"><path d="M12.1931 5.29375C10.9837 6.50312 9.0165 6.50273 7.80713 5.29375C6.59814 4.08437 6.59814 2.11641 7.80713 0.907031C9.0165 -0.302344 10.9837 -0.302344 12.1931 0.907031C13.4021 2.11641 13.4021 4.08437 12.1931 5.29375Z" fill="#000"></path><path d="M5.29448 12.1934C4.0855 13.4028 2.11792 13.4028 0.908936 12.1934C-0.303174 10.9809 -0.302783 9.0188 0.908936 7.80669C2.11792 6.59731 4.0855 6.59731 5.29448 7.80669C6.50659 9.01919 6.50659 10.9813 5.29448 12.1934Z" fill="#000"></path><path d="M19.0905 12.1934C17.8815 13.4028 15.914 13.4028 14.705 12.1934C13.4929 10.9809 13.4929 9.0188 14.705 7.80669C15.914 6.59731 17.8815 6.59731 19.0905 7.80669C20.3026 9.01919 20.3022 10.9813 19.0905 12.1934Z" fill="#000"></path><path d="M13.0997 16.8996C13.0997 17.6937 12.7978 18.4883 12.1931 19.0929C10.9837 20.3023 9.0165 20.3023 7.80713 19.0929C6.59814 17.8836 6.59814 15.9156 7.80713 14.7062C9.0165 13.4969 10.9837 13.4969 12.1931 14.7062C12.7978 15.3109 13.0997 16.1054 13.0997 16.8996Z" fill="#000"></path><path d="M6.30759 3.69034C6.12192 3.42522 5.75657 3.36084 5.49157 3.54647C4.73298 4.07784 4.07888 4.73205 3.54747 5.49096C3.36181 5.75608 3.42622 6.12147 3.69122 6.30713C3.9563 6.49284 4.32161 6.42842 4.50724 6.16331C4.96005 5.51666 5.51735 4.95924 6.16372 4.50651C6.42884 4.32084 6.49321 3.95545 6.30759 3.69034Z" fill="#000"></path><path d="M13.692 16.3097C13.8778 16.575 14.2432 16.6391 14.508 16.4536C15.2666 15.9222 15.9207 15.268 16.4521 14.5091C16.6378 14.2439 16.5733 13.8786 16.3083 13.6929C16.0433 13.5072 15.678 13.5716 15.4923 13.8367C15.0395 14.4834 14.4822 15.0408 13.8358 15.4935C13.5707 15.6792 13.5064 16.0446 13.692 16.3097Z" fill="#000"></path><path d="M6.16373 15.4936C5.51736 15.0408 4.96006 14.4834 4.50725 13.8368C4.32162 13.5717 3.95635 13.5074 3.69123 13.6929C3.42619 13.8786 3.36182 14.244 3.54748 14.5091C4.07889 15.268 4.73295 15.9222 5.49158 16.4536C5.75682 16.6394 6.12209 16.5747 6.3076 16.3097C6.49318 16.0446 6.42881 15.6792 6.16373 15.4936Z" fill="#000"></path><path d="M15.4923 6.16333C15.6779 6.42837 16.0431 6.49286 16.3083 6.30716C16.5734 6.1215 16.6377 5.75607 16.4521 5.49099C15.9207 4.73208 15.2666 4.07786 14.508 3.5465C14.2429 3.36083 13.8776 3.42521 13.692 3.69036C13.5063 3.95548 13.5708 4.32091 13.8358 4.50654C14.4822 4.95927 15.0395 5.51673 15.4923 6.16333Z" fill="#000"></path></g><defs><clipPath id="clip0_235_623"><rect width="20" height="20" fill="white"></rect></clipPath></defs></svg>