<svg xmlns="http://www.w3.org/2000/svg" width="20" height="20" viewBox="0 0 20 20"><g clip-path="url(#clip0_235_648)"><path d="M15.8891 10.643V9.35703C18.2035 9.06758 20 7.08828 20 4.69688C20 2.10703 17.893 0 15.3031 0C12.9117 0 10.9324 1.79648 10.643 4.11094H9.35703C9.06758 1.79648 7.08828 0 4.69688 0C2.10703 0 0 2.10703 0 4.69688C0 7.08828 1.79648 9.06758 4.11094 9.35703V10.643C1.79648 10.9324 0 12.9117 0 15.3031C0 17.893 2.10703 20 4.69688 20C7.08828 20 9.06758 18.2035 9.35703 15.8891H10.643C10.9324 18.2035 12.9117 20 15.3031 20C17.893 20 20 17.893 20 15.3031C20 12.9117 18.2035 10.9324 15.8891 10.643ZM13.5363 4.11094H17.0703C17.3937 4.11094 17.6562 4.37305 17.6562 4.69688C17.6562 5.02031 17.3937 5.28281 17.0703 5.28281H13.5363C13.2125 5.28281 12.9504 5.02031 12.9504 4.69688C12.9504 4.37305 13.2125 4.11094 13.5363 4.11094ZM2.92969 5.28281C2.60625 5.28281 2.34375 5.02031 2.34375 4.69688C2.34375 4.37305 2.60625 4.11094 2.92969 4.11094H4.11094V2.92969C4.11094 2.60625 4.37305 2.34375 4.69688 2.34375C5.02031 2.34375 5.28281 2.60625 5.28281 2.92969V4.11094H6.46406C6.7875 4.11094 7.05 4.37305 7.05 4.69688C7.05 5.02031 6.7875 5.28281 6.46406 5.28281H5.28281V6.46367C5.28281 6.7875 5.02031 7.04961 4.69688 7.04961C4.37305 7.04961 4.11094 6.7875 4.11094 6.46367V5.28281H2.92969ZM6.36055 16.1383C6.58945 16.3672 6.58945 16.7383 6.36055 16.9672C6.13164 17.1957 5.76094 17.1957 5.53203 16.9672L4.69688 16.132L3.86172 16.9672C3.63281 17.1957 3.26172 17.1957 3.03281 16.9672C2.8043 16.7383 2.8043 16.3672 3.03281 16.1383L3.86797 15.3031L3.03281 14.468C2.8043 14.2391 2.8043 13.8684 3.03281 13.6395C3.26172 13.4105 3.63281 13.4105 3.86172 13.6395L4.69688 14.4746L5.53203 13.6395C5.76094 13.4105 6.13164 13.4105 6.36055 13.6395C6.58945 13.8684 6.58945 14.2391 6.36055 14.468L5.52539 15.3031L6.36055 16.1383ZM10.643 14.7172H9.35703C9.0918 12.5949 7.40508 10.9082 5.28281 10.643V9.35703C7.40508 9.0918 9.0918 7.40508 9.35703 5.28281H10.643C10.9082 7.40508 12.5949 9.0918 14.7172 9.35703V10.643C12.5949 10.9082 10.9082 12.5949 10.643 14.7172ZM17.0703 17.0609H13.5363C13.2125 17.0609 12.9504 16.7988 12.9504 16.475C12.9504 16.1516 13.2125 15.8891 13.5363 15.8891H17.0703C17.3937 15.8891 17.6562 16.1516 17.6562 16.475C17.6562 16.7988 17.3937 17.0609 17.0703 17.0609ZM17.0703 14.7172H13.5363C13.2125 14.7172 12.9504 14.4551 12.9504 14.1313C12.9504 13.8078 13.2125 13.5453 13.5363 13.5453H17.0703C17.3937 13.5453 17.6562 13.8078 17.6562 14.1313C17.6562 14.4551 17.3937 14.7172 17.0703 14.7172Z" fill="#000"></path></g><defs><clipPath id="clip0_235_648"><rect width="20" height="20" fill="white"></rect></clipPath></defs></svg>