<svg xmlns="http://www.w3.org/2000/svg" class="pxl-icon-calendar" width="120" height="120" viewBox="0 0 120 120"><path class="pxl-calendar-hover" d="M111.577 48.4507C110.606 48.4507 109.818 49.2379 109.818 50.209V106.988C109.818 112.224 105.559 116.483 100.323 116.483H41.0102C40.0392 116.483 39.252 117.27 39.252 118.241C39.252 119.213 40.0392 120 41.0102 120H100.323C107.498 120 113.335 114.163 113.335 106.988V50.209C113.335 49.2379 112.548 48.4507 111.577 48.4507Z" stroke="#E44F39" stroke-width="1" stroke-linecap="round" stroke-linejoin="round"></path><path class="pxl-calendar-hover" d="M100.323 13.3299H93.6193V8.28949H102.667C103.638 8.28949 104.425 7.50224 104.425 6.53119C104.425 5.56014 103.638 4.7729 102.667 4.7729H93.5973C92.8689 -1.59331 83.8176 -1.58862 83.0916 4.7729H65.2301C64.5017 -1.59331 55.4505 -1.58862 54.7244 4.7729H36.8629C36.1345 -1.59331 27.0833 -1.58862 26.357 4.7729H17.3311C16.36 4.7729 15.5728 5.56014 15.5728 6.53119C15.5728 7.50224 16.36 8.28949 17.3311 8.28949H26.3352V13.3299H19.6755C12.5009 13.3299 6.66406 19.1668 6.66406 26.3413V106.989C6.66406 114.163 12.5009 120 19.6755 120H32.798C33.769 120 34.5563 119.213 34.5563 118.242C34.5563 117.271 33.769 116.483 32.798 116.483H19.6755C14.44 116.483 10.1807 112.224 10.1807 106.989V35.1328H109.817V41.9316C109.887 44.2518 113.262 44.2586 113.334 41.9316V26.3413C113.334 19.1668 107.497 13.3299 100.323 13.3299ZM86.5861 5.24178C86.6576 2.92387 90.0279 2.91356 90.1027 5.24178V21.6525C90.0305 23.9723 86.6605 23.9791 86.5861 21.6525V5.24178ZM65.2521 8.28949H83.0695V13.3299H65.2521V8.28949ZM58.219 5.24178C58.2905 2.92387 61.6608 2.91356 61.7356 5.24178V21.6525C61.6633 23.9723 58.2933 23.9791 58.219 21.6525V5.24178ZM36.885 8.28949H54.7024V13.3299H36.885V8.28949ZM29.8518 5.24178C29.9233 2.92387 33.2936 2.91356 33.3684 5.24178V21.6525C33.2962 23.9723 29.9261 23.9791 29.8518 21.6525V5.24178ZM10.1807 31.6162V26.3413C10.1807 21.1058 14.44 16.8465 19.6755 16.8465H26.3352V21.6525C26.3352 24.5612 28.7016 26.9274 31.6101 26.9274C34.5185 26.9274 36.885 24.5612 36.885 21.6525V16.8465H54.7024V21.6525C54.7024 24.5612 57.0688 26.9274 59.9773 26.9274C62.8857 26.9274 65.2519 24.5612 65.2519 21.6525V16.8465H83.0693V21.6525C83.0693 24.5612 85.4358 26.9274 88.3442 26.9274C91.2527 26.9274 93.6191 24.5612 93.6191 21.6525V16.8465H100.322C105.558 16.8465 109.817 21.1058 109.817 26.3413V31.6162H10.1807Z" stroke="#E44F39" stroke-width="1" stroke-linecap="round" stroke-linejoin="round"></path><path d="M29.0538 57.7562H38.9003C41.0332 57.7562 42.7685 56.0209 42.7685 53.8879V44.0415C42.7685 41.9085 41.0332 40.1732 38.9003 40.1732H29.0538C26.9209 40.1732 25.1855 41.9085 25.1855 44.0415V53.8879C25.1855 56.0209 26.9209 57.7562 29.0538 57.7562ZM28.7021 44.0415C28.7021 43.8476 28.8599 43.6898 29.0538 43.6898H38.9003C39.0941 43.6898 39.2519 43.8476 39.2519 44.0415V53.8879C39.2519 54.0818 39.0941 54.2396 38.9003 54.2396H29.0538C28.8599 54.2396 28.7021 54.0818 28.7021 53.8879V44.0415Z" fill="white"></path><path d="M55.0538 57.7562H64.9003C67.0332 57.7562 68.7685 56.0209 68.7685 53.8879V44.0415C68.7685 41.9085 67.0332 40.1732 64.9003 40.1732H55.0538C52.9209 40.1732 51.1855 41.9085 51.1855 44.0415V53.8879C51.1855 56.0209 52.9209 57.7562 55.0538 57.7562ZM54.7021 44.0415C54.7021 43.8476 54.8599 43.6898 55.0538 43.6898H64.9003C65.0941 43.6898 65.2519 43.8476 65.2519 44.0415V53.8879C65.2519 54.0818 65.0941 54.2396 64.9003 54.2396H55.0538C54.8599 54.2396 54.7021 54.0818 54.7021 53.8879V44.0415Z" fill="#E44F39"></path><path d="M81.0558 57.7563H90.9022C93.0351 57.7563 94.7705 56.021 94.7705 53.8881V44.0416C94.7705 41.9087 93.0351 40.1733 90.9022 40.1733H81.0558C78.9228 40.1733 77.1875 41.9087 77.1875 44.0416V53.8881C77.1875 56.021 78.9228 57.7563 81.0558 57.7563ZM80.7041 44.0416C80.7041 43.8477 80.8619 43.6899 81.0558 43.6899H90.9022C91.0961 43.6899 91.2539 43.8477 91.2539 44.0416V53.8881C91.2539 54.0819 91.0961 54.2397 90.9022 54.2397H81.0558C80.8619 54.2397 80.7041 54.0819 80.7041 53.8881V44.0416Z" fill="white"></path><path d="M25.1855 77.2733C25.1855 79.4062 26.9209 81.1416 29.0538 81.1416H38.9003C41.0332 81.1416 42.7685 79.4062 42.7685 77.2733V67.4268C42.7685 65.2939 41.0332 63.5586 38.9003 63.5586H29.0538C26.9209 63.5586 25.1855 65.2939 25.1855 67.4268V77.2733ZM28.7021 67.4268C28.7021 67.233 28.8599 67.0752 29.0538 67.0752H38.9003C39.0941 67.0752 39.2519 67.233 39.2519 67.4268V77.2733C39.2519 77.4672 39.0941 77.625 38.9003 77.625H29.0538C28.8599 77.625 28.7021 77.4672 28.7021 77.2733V67.4268Z" fill="#E44F39"></path><path d="M51.1855 77.2733C51.1855 79.4062 52.9209 81.1416 55.0538 81.1416H64.9003C67.0332 81.1416 68.7685 79.4062 68.7685 77.2733V67.4268C68.7685 65.2939 67.0332 63.5586 64.9003 63.5586H55.0538C52.9209 63.5586 51.1855 65.2939 51.1855 67.4268V77.2733ZM54.7021 67.4268C54.7021 67.233 54.8599 67.0752 55.0538 67.0752H64.9003C65.0941 67.0752 65.2519 67.233 65.2519 67.4268V77.2733C65.2519 77.4672 65.0941 77.625 64.9003 77.625H55.0538C54.8599 77.625 54.7021 77.4672 54.7021 77.2733V67.4268Z" fill="white"></path><path d="M77.1875 77.2733C77.1875 79.4062 78.9228 81.1416 81.0558 81.1416H90.9022C93.0351 81.1416 94.7705 79.4062 94.7705 77.2733V67.4268C94.7705 65.2939 93.0351 63.5586 90.9022 63.5586H81.0558C78.9228 63.5586 77.1875 65.2939 77.1875 67.4268V77.2733ZM80.7041 67.4268C80.7041 67.233 80.8619 67.0752 81.0558 67.0752H90.9022C91.0961 67.0752 91.2539 67.233 91.2539 67.4268V77.2733C91.2539 77.4672 91.0961 77.625 90.9022 77.625H81.0558C80.8619 77.625 80.7041 77.4672 80.7041 77.2733V67.4268Z" fill="#E44F39"></path><path d="M25.1855 100.659C25.1855 102.792 26.9209 104.527 29.0538 104.527H38.9003C41.0332 104.527 42.7685 102.792 42.7685 100.659V90.8122C42.7685 88.6793 41.0332 86.944 38.9003 86.944H29.0538C26.9209 86.944 25.1855 88.6793 25.1855 90.8122V100.659ZM28.7021 90.8122C28.7021 90.6183 28.8599 90.4606 29.0538 90.4606H38.9003C39.0941 90.4606 39.2519 90.6183 39.2519 90.8122V100.659C39.2519 100.853 39.0941 101.01 38.9003 101.01H29.0538C28.8599 101.01 28.7021 100.853 28.7021 100.659V90.8122Z" fill="white"></path><path d="M51.1855 100.659C51.1855 102.792 52.9209 104.527 55.0538 104.527H64.9003C67.0332 104.527 68.7685 102.792 68.7685 100.659V90.8122C68.7685 88.6793 67.0332 86.944 64.9003 86.944H55.0538C52.9209 86.944 51.1855 88.6793 51.1855 90.8122V100.659ZM54.7021 90.8122C54.7021 90.6183 54.8599 90.4606 55.0538 90.4606H64.9003C65.0941 90.4606 65.2519 90.6183 65.2519 90.8122V100.659C65.2519 100.853 65.0941 101.01 64.9003 101.01H55.0538C54.8599 101.01 54.7021 100.853 54.7021 100.659V90.8122Z" fill="#E44F39"></path><path d="M77.1875 100.659C77.1875 102.791 78.9228 104.527 81.0558 104.527H90.9022C93.0351 104.527 94.7705 102.791 94.7705 100.659V90.8121C94.7705 88.6792 93.0351 86.9438 90.9022 86.9438H81.0558C78.9228 86.9438 77.1875 88.6792 77.1875 90.8121V100.659ZM80.7041 90.8121C80.7041 90.6182 80.8619 90.4604 81.0558 90.4604H90.9022C91.0961 90.4604 91.2539 90.6182 91.2539 90.8121V100.659C91.2539 100.852 91.0961 101.01 90.9022 101.01H81.0558C80.8619 101.01 80.7041 100.852 80.7041 100.659V90.8121Z" fill="white"></path></svg>