<svg xmlns="http://www.w3.org/2000/svg" width="20" height="20" viewBox="0 0 20 20"><g clip-path="url(#clip0_235_651)"><path d="M13.8293 1.23523H2.26172C1.01445 1.23523 0 2.24968 0 3.49695V13.6337C0 14.1137 0.54293 14.3844 0.926172 14.1106L4.14766 11.8122C4.41797 11.6196 4.73594 11.5177 5.06797 11.5177H12.1535C13.4008 11.5177 14.4152 10.5032 14.4152 9.25593V1.82117C14.4152 1.49773 14.1527 1.23523 13.8293 1.23523ZM10.9832 8.33328H4.21328C3.88984 8.33328 3.62734 8.07117 3.62734 7.74734C3.62734 7.4239 3.88984 7.1614 4.21328 7.1614H10.9832C11.3066 7.1614 11.5691 7.4239 11.5691 7.74734C11.5691 8.07117 11.3066 8.33328 10.9832 8.33328ZM10.9832 5.5989H4.21328C3.88984 5.5989 3.62734 5.33679 3.62734 5.01296C3.62734 4.68953 3.88984 4.42703 4.21328 4.42703H10.9832C11.3066 4.42703 11.5691 4.68953 11.5691 5.01296C11.5691 5.33679 11.3066 5.5989 10.9832 5.5989Z" fill="#000"></path><path d="M20.0002 8.04189V18.1782C20.0002 18.6551 19.46 18.9309 19.074 18.6552L15.8525 16.3571C15.5822 16.1646 15.2643 16.0626 14.9322 16.0626H7.84668C6.59941 16.0626 5.58496 15.0478 5.58496 13.8005V12.6896H12.1537C14.0471 12.6896 15.5873 11.1493 15.5873 9.25596V5.77979H17.7385C18.9857 5.77979 20.0002 6.79463 20.0002 8.04189Z" fill="#000"></path></g><defs><clipPath id="clip0_235_651"><rect width="20" height="20" fill="white"></rect></clipPath></defs></svg>