<svg xmlns="http://www.w3.org/2000/svg" width="11" height="15" viewBox="0 0 11 15"><path d="M6.125 4.46875C6.125 4.85156 6.39844 5.125 6.78125 5.125H10.5V14.0938C10.5 14.4766 10.1992 14.75 9.84375 14.75H0.65625C0.273438 14.75 0 14.4766 0 14.0938V1.40625C0 1.05078 0.273438 0.75 0.65625 0.75H6.125V4.46875ZM7.875 10.9219V10.7031C7.875 10.5391 7.71094 10.375 7.54688 10.375H2.95312C2.76172 10.375 2.625 10.5391 2.625 10.7031V10.9219C2.625 11.1133 2.76172 11.25 2.95312 11.25H7.54688C7.71094 11.25 7.875 11.1133 7.875 10.9219ZM7.875 9.17188V8.95312C7.875 8.78906 7.71094 8.625 7.54688 8.625H2.95312C2.76172 8.625 2.625 8.78906 2.625 8.95312V9.17188C2.625 9.36328 2.76172 9.5 2.95312 9.5H7.54688C7.71094 9.5 7.875 9.36328 7.875 9.17188ZM7.875 7.20312C7.875 7.03906 7.71094 6.875 7.54688 6.875H2.95312C2.76172 6.875 2.625 7.03906 2.625 7.20312V7.42188C2.625 7.61328 2.76172 7.75 2.95312 7.75H7.54688C7.71094 7.75 7.875 7.61328 7.875 7.42188V7.20312ZM10.5 4.08594V4.25H7V0.75H7.16406C7.32812 0.75 7.49219 0.832031 7.62891 0.941406L10.3086 3.62109C10.418 3.75781 10.5 3.92188 10.5 4.08594Z" fill="#000"></path></svg>