<svg xmlns="http://www.w3.org/2000/svg" width="11" height="15" viewBox="0 0 11 15"><path d="M4.94922 7.77734C4.8125 7.33984 4.83984 6.49219 4.89453 6.49219C5.14062 6.49219 5.11328 7.50391 4.94922 7.77734ZM4.92188 9.0625C5.16797 9.52734 5.52344 9.91016 5.85156 10.1836C5.19531 10.293 4.64844 10.5664 4.12891 10.7578C4.42969 10.2383 4.70312 9.60938 4.92188 9.0625ZM2.35156 12.4805C2.48828 12.043 3.11719 11.5508 3.30859 11.3594C2.70703 12.3164 2.35156 12.4805 2.35156 12.4805ZM6.78125 5.125H10.5V14.0938C10.5 14.4766 10.1992 14.75 9.84375 14.75H0.65625C0.273438 14.75 0 14.4766 0 14.0938V1.40625C0 1.05078 0.273438 0.75 0.65625 0.75H6.125V4.46875C6.125 4.85156 6.39844 5.125 6.78125 5.125ZM6.5625 9.82812C6.01562 9.5 5.63281 9.03516 5.38672 8.35156C5.49609 7.85938 5.6875 7.09375 5.55078 6.60156C5.41406 5.80859 4.40234 5.89062 4.23828 6.41016C4.10156 6.92969 4.23828 7.64062 4.45703 8.51562C4.15625 9.28125 3.69141 10.293 3.36328 10.8672C3.33594 10.8672 3.33594 10.8672 3.33594 10.8672C2.59766 11.25 1.33984 12.0977 1.85938 12.7266C1.99609 12.918 2.29688 13 2.43359 13C2.92578 13 3.41797 12.5078 4.10156 11.332C4.8125 11.0859 5.60547 10.7852 6.26172 10.6758C6.86328 11.0039 7.57422 11.2227 8.01172 11.2227C8.83203 11.2227 8.88672 10.3477 8.55859 10.0195C8.17578 9.66406 7.08203 9.77344 6.5625 9.82812ZM10.3086 3.62109C10.418 3.75781 10.5 3.92188 10.5 4.08594V4.25H7V0.75H7.16406C7.32812 0.75 7.49219 0.832031 7.62891 0.941406L10.3086 3.62109ZM8.25781 10.6211C8.25781 10.6211 8.12109 10.8125 7.10938 10.375C8.20312 10.293 8.39453 10.5391 8.25781 10.6211Z" fill="#000"></path></svg>