<svg xmlns="http://www.w3.org/2000/svg" width="11" height="15" viewBox="0 0 11 15"><path d="M6.125 4.46875C6.125 4.85156 6.39844 5.125 6.78125 5.125H10.5V14.0938C10.5 14.4766 10.1992 14.75 9.84375 14.75H0.65625C0.273438 14.75 0 14.4766 0 14.0938V1.40625C0 1.05078 0.273438 0.75 0.65625 0.75H6.125V4.46875ZM4.375 11.7969V8.07812C4.375 7.80469 4.01953 7.64062 3.80078 7.85938L2.84375 8.84375H2.07812C1.88672 8.84375 1.75 9.00781 1.75 9.17188V10.7031C1.75 10.8945 1.88672 11.0312 2.07812 11.0312H2.84375L3.80078 12.043C4.01953 12.2344 4.375 12.0977 4.375 11.7969ZM5.27734 10.5117C4.64844 11.1406 5.60547 12.043 6.20703 11.4141C6.94531 10.6484 6.94531 9.44531 6.20703 8.67969C5.60547 8.05078 4.67578 8.98047 5.27734 9.58203C5.52344 9.85547 5.52344 10.2656 5.27734 10.5117ZM7.62891 7.3125C7.02734 6.68359 6.07031 7.58594 6.67188 8.21484C7.68359 9.25391 7.68359 10.8672 6.67188 11.8789C6.07031 12.5078 7.02734 13.4102 7.62891 12.8086C9.10547 11.2773 9.10547 8.84375 7.62891 7.3125ZM10.5 4.08594V4.25H7V0.75H7.16406C7.32812 0.75 7.49219 0.832031 7.62891 0.941406L10.3086 3.62109C10.418 3.75781 10.5 3.92188 10.5 4.08594Z" fill="#000"></path></svg>