<svg xmlns="http://www.w3.org/2000/svg" width="20" height="20" viewBox="0 0 20 20"><g clip-path="url(#clip0_235_590)"><path d="M9.99961 7.21912C8.46641 7.21912 7.21875 8.46677 7.21875 9.99998C7.21875 11.5332 8.46641 12.7808 9.99961 12.7808C11.5328 12.7808 12.7805 11.5332 12.7805 9.99998C12.7805 8.46677 11.5328 7.21912 9.99961 7.21912ZM9.99961 10.5859C9.67617 10.5859 9.41367 10.3234 9.41367 9.99998C9.41367 9.67654 9.67617 9.41404 9.99961 9.41404C10.323 9.41404 10.5855 9.67654 10.5855 9.99998C10.5855 10.3234 10.323 10.5859 9.99961 10.5859Z" fill="#000"></path><path d="M19.4785 7.65703L16.698 7.34844C16.668 7.27344 16.6371 7.19844 16.6047 7.12383L18.3477 4.93555C18.534 4.70195 18.5145 4.36602 18.3027 4.15508L15.8074 1.67109C15.5957 1.46016 15.2598 1.44258 15.027 1.62969L12.8465 3.38281C12.7816 3.35469 12.7168 3.32773 12.6516 3.30195L12.343 0.521484C12.3102 0.224609 12.0594 0 11.7605 0H8.23945C7.94062 0 7.68984 0.224609 7.65703 0.521484L7.34844 3.30195C7.27344 3.33203 7.19844 3.36289 7.12383 3.39531L4.93555 1.65234C4.70195 1.46602 4.36602 1.48555 4.15508 1.69727L1.67109 4.19258C1.46016 4.4043 1.44258 4.74023 1.62969 4.97305L3.38281 7.15352C3.35469 7.21836 3.32773 7.2832 3.30195 7.34844L0.521484 7.65703C0.224609 7.68984 0 7.94062 0 8.23945V11.7605C0 12.0594 0.224609 12.3102 0.521484 12.343L3.30195 12.6516C3.33203 12.7266 3.36289 12.8016 3.39531 12.8762L1.65234 15.0645C1.46602 15.298 1.48555 15.634 1.69727 15.8449L4.19258 18.3289C4.4043 18.5398 4.74023 18.5574 4.97305 18.3703L7.15352 16.6172C7.21836 16.6453 7.2832 16.6723 7.34844 16.698L7.65703 19.4785C7.68984 19.7754 7.94062 20 8.23945 20H11.7605C12.0594 20 12.3102 19.7754 12.343 19.4785L12.6516 16.698C12.7266 16.668 12.8016 16.6371 12.8762 16.6047L15.0645 18.3477C15.298 18.534 15.634 18.5145 15.8449 18.3027L18.3289 15.8074C18.5398 15.5957 18.5574 15.2598 18.3703 15.027L16.6172 12.8465C16.6453 12.7816 16.6723 12.7168 16.698 12.6516L19.4785 12.343C19.7754 12.3102 20 12.0594 20 11.7605V8.23945C20 7.94062 19.7754 7.68984 19.4785 7.65703ZM13.9527 10C13.9527 12.1793 12.1793 13.9527 10 13.9527C7.8207 13.9527 6.04727 12.1793 6.04727 10C6.04727 7.8207 7.8207 6.04727 10 6.04727C12.1793 6.04727 13.9527 7.8207 13.9527 10Z" fill="#000"></path></g><defs><clipPath id="clip0_235_590"><rect width="20" height="20" fill="white"></rect></clipPath></defs></svg>