<svg xmlns="http://www.w3.org/2000/svg" width="20" height="20" viewBox="0 0 20 20"><g clip-path="url(#clip0_235_645)"><path d="M1.79668 9.33589L0.329102 8.33589L1.79668 6.86792V9.33589Z" fill="#000"></path><path d="M2.96875 0.671055V10.1344C2.96875 10.1344 7.94371 13.5234 7.94375 13.5234C9.29609 14.4383 11.1023 14.4184 12.4371 13.4738L17.032 10.2203V0.671055C17.032 0.30043 16.7316 0 16.361 0H3.6398C3.26918 0 2.96875 0.30043 2.96875 0.671055ZM14.5434 9.22422H5.47438C5.15906 9.22422 4.88766 8.98203 4.87258 8.66707C4.85648 8.33059 5.12445 8.05234 5.45781 8.05234H14.5267C14.8421 8.05234 15.1136 8.29453 15.1286 8.60957C15.1447 8.94605 14.8763 9.22422 14.5434 9.22422ZM14.5434 6.14961H5.47418C5.15852 6.14961 4.88707 5.9068 4.87254 5.59148C4.85703 5.255 5.1248 4.97773 5.45785 4.97773H14.5267C14.8421 4.97773 15.1136 5.21992 15.1287 5.53496C15.1447 5.87145 14.8763 6.14961 14.5434 6.14961ZM14.5434 3.07461H5.47438C5.15906 3.07461 4.88766 2.83242 4.87258 2.51746C4.85648 2.18098 5.12445 1.90273 5.45781 1.90273H14.5269C14.8426 1.90273 15.1141 2.14555 15.1287 2.46094C15.1441 2.79738 14.876 3.07461 14.5434 3.07461Z" fill="#000"></path><path d="M19.6801 8.34487L18.2031 9.39058V6.86792L19.6801 8.34487Z" fill="#000"></path><path d="M20 9.55464V19.1312C20 19.611 19.6111 20 19.1313 20H0.86875C0.388945 20 0 19.611 0 19.1312V9.53003L6.33633 13.8464L2.68426 17.4985C2.46227 17.7205 2.44016 18.0817 2.64965 18.3155C2.87457 18.5666 3.26332 18.5769 3.50078 18.3394L7.32266 14.5176C9.15027 15.7133 11.3559 15.5986 12.984 14.5183L16.8051 18.3394C17.0337 18.568 17.4048 18.5682 17.6336 18.3394C17.8625 18.1105 17.8625 17.7394 17.6336 17.5105L13.9563 13.8336L20 9.55464Z" fill="#000"></path></g><defs><clipPath id="clip0_235_645"><rect width="20" height="20" fill="white"></rect></clipPath></defs></svg>