<svg xmlns="http://www.w3.org/2000/svg" width="20" height="20" viewBox="0 0 20 20"><g clip-path="url(#clip0_235_612)"><path d="M19.5555 1.56255C16.0051 0.678562 14.4223 0.28403 13.6887 0.116062V3.89067C13.6887 4.21411 13.4262 4.47661 13.1027 4.47661C12.7793 4.47661 12.5168 4.21411 12.5168 3.89067V0.128171L7.4207 1.39692V19.8875L12.5168 18.6188V14.5645C12.5168 14.2406 12.7793 13.9785 13.1027 13.9785C13.4262 13.9785 13.6887 14.2406 13.6887 14.5645V18.616L19.2727 19.9824C19.6418 20.0742 20 19.7949 20 19.4137V2.1313C20 1.86216 19.8168 1.62778 19.5555 1.56255ZM15.6895 9.30356C15.4797 9.91098 15.1129 10.4071 14.7586 10.8872C14.5094 11.2243 14.6148 11.0774 13.5832 12.5563C13.35 12.8903 12.8551 12.8899 12.6223 12.5563C11.5895 11.0758 11.6965 11.2247 11.4469 10.8872C11.0926 10.4071 10.7258 9.91098 10.516 9.30356C10.1973 8.38052 10.3371 7.46489 10.9098 6.72505C11.4313 6.05083 12.2512 5.64848 13.1027 5.64848C13.9543 5.64848 14.7742 6.05083 15.2957 6.72466V6.72505C15.8684 7.46489 16.0078 8.38052 15.6895 9.30356ZM0.727344 0.0176242C0.357031 -0.0745633 0 0.206687 0 0.586374V17.8691C0 18.1379 0.183203 18.3727 0.444531 18.4375C3.925 19.3039 5.49883 19.7027 6.24883 19.8766V1.3688L0.727344 0.0176242Z" fill="#000"></path><path d="M13.1029 6.82031C12.1319 6.82031 11.2158 7.73984 11.624 8.92109C11.7752 9.35898 12.0737 9.76289 12.3897 10.191C12.6428 10.5336 12.6112 10.4922 13.1029 11.1969C13.5994 10.4852 13.5666 10.5285 13.8162 10.191C14.1322 9.76289 14.4307 9.35898 14.5819 8.9207C14.9869 7.75 14.083 6.82031 13.1029 6.82031ZM13.1029 9.03047C12.7795 9.03047 12.517 8.76836 12.517 8.44414C12.517 8.1207 12.7795 7.8582 13.1029 7.8582C13.4264 7.8582 13.6889 8.1207 13.6889 8.44414C13.6889 8.76836 13.4264 9.03047 13.1029 9.03047Z" fill="#000"></path></g><defs><clipPath id="clip0_235_612"><rect width="20" height="20" fill="white"></rect></clipPath></defs></svg>