<svg xmlns="http://www.w3.org/2000/svg" width="100" height="100" viewBox="0 0 100 100" fill="none"><path id="Note" d="M24.1299 4.54561e-05C21.1009 0.0212611 18.3002 2.12161 17.5056 5.26577C17.0222 7.20276 17.3915 9.16945 18.3624 10.7479C16.7711 11.6517 15.5222 13.1941 15.0367 15.131C14.5554 17.068 14.9205 19.0199 15.8873 20.611C15.0718 21.0684 14.3571 21.6924 13.7875 22.4442C13.2178 23.1961 12.8055 24.0597 12.5762 24.9815C12.0907 26.9121 12.4642 28.8851 13.4434 30.4551C11.8418 31.3674 10.5907 32.8949 10.1053 34.8467C9.62188 36.7774 9.99325 38.7504 10.9746 40.3204C9.37293 41.2327 8.12191 42.7602 7.63644 44.712C7.15097 46.6427 7.52441 48.6157 8.50365 50.1857C6.90201 51.0979 5.651 52.6255 5.1676 54.5773C4.68214 56.5079 5.05557 58.481 6.03481 60.0509C4.43318 60.9632 3.18216 62.4907 2.69669 64.4426C2.20915 66.3944 2.59089 68.3675 3.58879 69.9586C2.75833 70.4158 2.02948 71.0439 1.44818 71.8034C0.866872 72.5629 0.445717 73.4373 0.211258 74.3715C-0.718187 78.0842 1.50792 81.9243 5.14686 82.879L5.1676 82.8365L11.7463 84.5762L11.4414 85.7855L65.706 100L74.4818 64.9517L69.8345 69.4495L51.6191 75.0716L54.8348 66.055L23.3623 57.8233L24.2752 54.1318L56.1211 62.4695L58.1335 56.8049L61.3077 53.7499L26.661 44.6696L27.5739 40.9781L64.5027 50.6524L72.7183 42.7178L29.9597 31.5159L30.8726 27.8244L75.8718 39.5991L75.851 39.6839L82.3862 33.3617L86.1828 18.2137L31.9099 3.99071L30.9141 7.94955C31.3705 4.48715 29.2336 1.10326 25.8312 0.218566C25.271 0.0700568 24.6901 -0.00207611 24.1299 4.54561e-05ZM24.1922 3.81674C24.4411 3.81674 24.6901 3.85705 24.9183 3.91858C26.5988 4.36198 27.5946 6.06772 27.1589 7.79467L30.7273 8.72816L28.4452 17.8106C28.9016 14.3418 26.744 10.9664 23.3623 10.0817L23.2378 10.0499C21.6196 9.55345 20.7068 7.89651 21.1217 6.21623C21.4744 4.81388 22.6362 3.88251 23.964 3.81886H24.1922V3.81674ZM21.7233 13.6841C21.9101 13.6841 22.1175 13.7138 22.325 13.7605L22.4495 13.7923C24.1299 14.2336 25.1258 15.9394 24.6901 17.6621L28.2585 18.5956L25.9764 27.7183C26.4743 24.2389 24.3167 20.802 20.9142 19.9321C20.769 19.8897 20.6445 19.8473 20.52 19.8261C19.0678 19.2532 18.2587 17.6833 18.6529 16.0879C19.0055 14.6091 20.2918 13.6587 21.7233 13.6926V13.6841ZM34.1505 14.6579L79.1705 26.4666L78.2576 30.1581L33.2377 18.3622L34.1505 14.6579ZM19.0263 23.5388H19.296C19.3997 23.5388 19.4827 23.5388 19.5864 23.56C19.7109 23.6025 19.8354 23.6237 19.9599 23.6661L19.9806 23.6237C21.6611 24.0692 22.6569 25.7664 22.2213 27.5061L25.7897 28.4396L23.5075 37.5623C23.9847 34.1042 21.8271 30.6885 18.4454 29.7974C16.7483 29.3519 15.7608 27.6546 16.1944 25.915C16.545 24.5147 17.6985 23.6025 19.0263 23.5388ZM93.4441 27.9304L91.3279 29.9671L97.8839 37.0744L100 35.0377L93.4441 27.9304ZM88.6102 32.5979L62.3865 57.9506L68.9217 65.0578L95.1661 39.7051L88.6102 32.5979ZM16.572 33.3829C16.879 33.3829 17.1944 33.4041 17.5118 33.4889C19.1923 33.9345 20.1881 35.6317 19.7524 37.3714L23.3208 38.3049L21.0387 47.4276C21.5159 43.9483 19.3582 40.5538 15.9682 39.6627C14.2795 39.2172 13.2919 37.5199 13.7235 35.7802C14.0762 34.38 15.2421 33.4465 16.572 33.3829ZM14.1011 43.2481C14.4081 43.2481 14.7235 43.2694 15.0409 43.3542C16.7296 43.7998 17.7193 45.497 17.2836 47.2367L20.852 48.1702L18.5699 57.2717C19.047 53.8135 16.8894 50.419 13.4973 49.528C11.8086 49.0824 10.8231 47.3852 11.2546 45.6455C11.6053 44.2453 12.7712 43.3118 14.1011 43.2481ZM11.6322 53.1134C11.9393 53.1134 12.2546 53.1346 12.572 53.2195C14.2587 53.665 15.2463 55.3623 14.8147 57.102L18.3831 58.0142L16.1135 67.0945C16.5616 63.6364 14.4019 60.2843 11.0285 59.3932C9.33973 58.9477 8.3522 57.2505 8.78372 55.5108C9.13642 54.1106 10.3024 53.1771 11.6322 53.1134ZM60.4571 61.43L57.6771 69.2161L65.4363 66.8187L60.4571 61.43ZM9.16131 62.9787C9.46836 62.9787 9.78371 62.9999 10.1011 63.0848C11.7899 63.5303 12.7774 65.2276 12.3438 66.9672L15.9143 67.8795L13.6322 77.0022C14.0679 73.5653 11.9102 70.2132 8.54306 69.3222L8.56381 69.2585C6.87089 68.813 5.88336 67.1157 6.31489 65.3761C6.6655 63.9758 7.83146 63.0423 9.16131 62.9787ZM20.9765 67.2855L66.0172 79.0602L65.1043 82.7517L20.0636 70.977L20.9765 67.2855ZM6.67795 72.9076C6.985 72.9076 7.30035 72.9288 7.61569 73.0137C9.30446 73.4592 10.292 75.1565 9.86047 76.8962L13.4289 77.8084L12.6633 80.8635L6.04103 79.1238V79.1662C4.37924 78.6995 3.41245 77.0235 3.83983 75.305C4.19252 73.9048 5.35847 72.9713 6.68832 72.9076H6.67795Z" fill="white"></path></svg>