<svg xmlns="http://www.w3.org/2000/svg" width="20" height="20" viewBox="0 0 20 20"><g clip-path="url(#clip0_235_657)"><path d="M19.8275 8.42271L18.7693 9.48169C17.6416 10.6086 15.8889 10.8563 14.4967 10.0883L12.7084 11.8766C12.7037 11.8676 12.6994 11.8583 12.6947 11.8493C12.0329 10.5241 11.3075 9.90692 10.1404 8.73989C9.40418 8.00364 8.49926 7.44853 8.12207 7.29146L9.91113 5.50239C9.14277 4.11177 9.39004 2.35786 10.5174 1.23013L11.5764 0.171533C11.8053 -0.057373 12.1764 -0.0569824 12.4049 0.171533L19.8275 7.59419C20.0564 7.8231 20.0564 8.19419 19.8275 8.42271Z" fill="#000"></path><path d="M4.47285 16.356L1.20176 19.6271C1.0873 19.7415 0.937305 19.799 0.787305 19.799C0.637305 19.799 0.487305 19.7415 0.372852 19.6271C0.143945 19.3982 0.143945 19.0275 0.372852 18.7986L3.64434 15.5275L4.47285 16.356Z" fill="#000"></path><path d="M12.3245 15.2578C12.3237 16.9524 11.6754 18.5835 10.4312 19.8285C10.2037 20.056 9.83269 20.0581 9.60226 19.8285L0.171402 10.3973C-0.0566453 10.1692 -0.0576219 9.79779 0.171402 9.56877C2.14054 7.59963 5.13664 7.11095 7.62687 8.35314C8.75742 8.91771 9.25968 9.51603 10.4312 10.6871C11.6521 11.9081 12.3245 13.5442 12.3245 15.2578Z" fill="#000"></path></g><defs><clipPath id="clip0_235_657"><rect width="20" height="20" fill="white"></rect></clipPath></defs></svg>