<svg xmlns="http://www.w3.org/2000/svg" class="pxl-icon-sem" width="120" height="120" viewBox="0 0 120 120"><path class="pxl-sem-hover" d="M101.983 73.7182C111.897 73.7182 119.963 65.652 119.963 55.7374V23.0718C119.963 13.1572 111.897 5.09107 101.983 5.09107H91.1389C90.1685 5.09107 89.3822 5.87735 89.3822 6.84773C89.3822 7.81812 90.1685 8.6044 91.1389 8.6044H101.983C109.96 8.6044 116.45 15.0945 116.45 23.0718V55.7376C116.45 63.715 109.96 70.2051 101.983 70.2051H68.7772C67.7679 70.2051 66.8413 70.7909 66.4169 71.6966C64.3134 76.1787 60.3529 78.8078 56.8148 80.3286C57.9615 77.9054 58.3445 75.164 58.4234 72.9101C58.4482 72.2056 58.1819 71.5106 57.6924 71.0035C57.2024 70.496 56.5164 70.2048 55.8107 70.2048H48.7053C40.7279 70.2048 34.2379 63.7148 34.2379 55.7374V23.0718C34.2379 15.0945 40.7279 8.6044 48.7053 8.6044H82.9683C83.9386 8.6044 84.7249 7.81812 84.7249 6.84773C84.7249 5.87735 83.9386 5.09107 82.9683 5.09107H71.8544C39.5805 -11.2478 -0.561708 13.8725 0.0418821 50.0957C-0.301019 90.1517 46.335 114.344 78.826 90.9888L81.0071 93.1699C82.4937 94.6534 84.7266 94.9713 86.549 94.0494L92.1854 99.6857C92.1109 100.446 92.3636 101.231 92.9442 101.812L106.757 115.625C107.34 116.204 108.113 116.458 108.884 116.384L110.967 118.467C112.928 120.511 116.459 120.511 118.419 118.467C120.464 116.506 120.464 112.975 118.42 111.014L116.337 108.931C116.411 108.171 116.159 107.385 115.578 106.805L101.765 92.9916C101.184 92.411 100.398 92.1582 99.6383 92.2327L94.0022 86.5966C94.9112 84.803 94.6199 82.5516 93.1227 81.054L90.9447 78.876C92.106 77.2278 93.1654 75.5041 94.124 73.7184H101.983V73.7182ZM91.6865 89.2492L96.7302 94.2927L94.2458 96.7771L89.2023 91.7336L91.6865 89.2492ZM115.935 115.982C115.282 116.664 114.105 116.664 113.451 115.982L111.793 114.324L114.277 111.84L115.936 113.498C116.617 114.152 116.617 115.329 115.935 115.982ZM112.476 108.672L108.624 112.523L96.0465 99.9454L99.8983 96.0937L112.476 108.672ZM90.6383 83.5382C91.1318 84.0317 91.1318 84.8351 90.6383 85.3286L85.2817 90.6855C84.7882 91.179 83.9845 91.1787 83.4913 90.6857L81.6517 88.8459C84.2715 86.7074 86.6657 84.3127 88.799 81.6993L90.6383 83.5382ZM50.0479 96.5881C24.4115 96.5881 3.55475 75.7313 3.55475 50.095C3.1294 20.1361 32.9653 -2.79402 61.785 5.09107H48.7051C44.4919 5.09107 40.6157 6.55144 37.5472 8.98735C2.02504 19.9668 -3.88485 67.5916 27.8944 86.9145C28.7109 87.4117 29.8015 87.1564 30.306 86.3189C30.8077 85.4883 30.5409 84.4085 29.7103 83.9071C2.97177 68.0043 4.85609 27.6788 32.8754 14.5522C31.5045 17.0896 30.7248 19.9911 30.7248 23.0718V55.7376C30.7248 65.6523 38.7909 73.7184 48.7055 73.7184H54.8611C54.6515 76.4684 53.8739 79.7531 51.5436 81.4976C50.7376 82.101 50.4755 83.1573 50.9067 84.0666C51.3358 84.9838 52.3491 85.4417 53.2996 85.199C57.7034 84.1062 65.548 81.1716 69.3389 73.7184H81.6395C71.6736 87.4319 52.751 93.1502 36.7979 87.2735C35.8849 86.9473 34.8792 87.423 34.5524 88.3367C34.2257 89.2501 34.7019 90.2554 35.6153 90.5822C53.868 97.2983 75.4146 90.1233 85.93 73.7182H90.1001C81.7475 87.8905 66.6359 96.5881 50.0479 96.5881Z" stroke="#E44F39" stroke-width="1" stroke-linecap="round" stroke-linejoin="round"></path><path d="M83.3499 29.9645L80.0458 48.2713C79.8736 49.226 80.5079 50.1397 81.4626 50.3121C82.4166 50.4838 83.3312 49.8502 83.5033 48.8953L85.8083 36.1243L89.5889 48.9377C89.8667 49.8617 90.7233 50.4932 91.6873 50.4866C92.6516 50.4831 93.4997 49.8441 93.7695 48.9182L97.4199 36.1131L99.8661 48.9131C100.048 49.8661 100.97 50.4927 101.921 50.3086C102.874 50.1266 103.499 49.2066 103.317 48.2535L99.8129 29.9205C99.371 27.7457 96.2844 27.568 95.6009 29.6825C95.5707 29.6973 91.681 43.4904 91.6543 43.5227C91.6241 43.4323 87.5912 29.738 87.5636 29.6624C86.8513 27.5487 83.7678 27.7605 83.3499 29.9645Z" fill="#fff"></path><path d="M76.3967 31.8594C78.7146 31.7922 78.7209 28.4163 76.3967 28.3461H68.5477C67.5773 28.3461 66.791 29.1324 66.791 30.1027V48.73C66.791 49.7003 67.5773 50.4866 68.5477 50.4866H76.3967C77.3671 50.4866 78.1534 49.7003 78.1534 48.73C78.1534 47.7596 77.3671 46.9733 76.3967 46.9733H70.3043V41.173H75.8179C76.7883 41.173 77.5746 40.3867 77.5746 39.4163C77.5746 38.446 76.7883 37.6597 75.8179 37.6597H70.3043V31.8592H76.3967V31.8594Z" fill="#fff"></path><path d="M55.6475 46.9735C53.6142 46.9735 51.6519 46.1477 50.3983 44.7639C49.747 44.0451 48.6361 43.9903 47.917 44.6419C47.1979 45.2935 47.1434 46.4041 47.795 47.1232C49.7034 49.2293 52.6391 50.4869 55.6475 50.4869C59.2622 50.4869 62.4121 48.1128 62.974 44.9649C63.3998 42.58 62.2872 39.4538 57.8878 37.8309C55.4821 36.9434 53.2495 35.9749 52.671 35.7208C51.1781 34.5813 52.0342 32.3487 53.8386 31.9088C56.8198 31.0104 59.5183 33.1802 59.5599 33.2144C60.3027 33.8323 61.4056 33.7346 62.0279 32.9942C62.6521 32.2515 62.5561 31.1434 61.8136 30.5192C61.6462 30.3784 57.6581 27.0897 52.8254 28.5447C50.4536 29.2593 48.7771 31.1193 48.4496 33.3994C48.1444 35.5245 49.0649 37.5683 50.8518 38.7329C51.3109 38.9887 53.4779 39.927 56.6722 41.1271C58.7104 41.879 59.7469 43.0529 59.5157 44.3474C59.2852 45.638 57.7752 46.9735 55.6475 46.9735Z" fill="#fff"></path><defs><clipPath id="clip0_240_1772"><rect width="120" height="120" fill="white"></rect></clipPath></defs></svg>