<svg xmlns="http://www.w3.org/2000/svg" class="pxl-icon-seo" width="120" height="120" viewBox="0 0 120 120"><path class="pxl-hover-seo" d="M112.383 49.3359H105.295C104.148 44.4391 102.223 39.7957 99.566 35.5153L104.582 30.4995C107.537 27.6642 107.537 22.5623 104.582 19.7271L100.273 15.4181C97.3029 12.4484 92.4708 12.4486 89.5005 15.4181L84.4849 20.434C83.3039 19.7013 82.0823 19.0174 80.8458 18.3966C78.7331 17.419 77.2284 20.4405 79.2684 21.5384C80.5903 22.2021 81.8941 22.9439 83.1427 23.7431C84.2215 24.4336 85.6048 24.2859 86.5073 23.3834L91.9866 17.9039C93.5864 16.3045 96.1887 16.3048 97.7871 17.9039L102.096 22.2129C102.871 22.9877 103.298 24.0176 103.298 25.1133C103.298 26.209 102.871 27.2388 102.096 28.0137L96.6162 33.4936C95.7143 34.3957 95.5664 35.779 96.2569 36.8578C98.9878 41.1239 100.922 45.7903 102.007 50.7274C102.281 51.978 103.364 52.8516 104.64 52.8516H112.383C114.644 52.8516 116.484 54.6916 116.484 56.9531V63.0469C116.484 65.3084 114.644 67.1484 112.383 67.1484H104.639C103.364 67.1484 102.281 68.0219 102.006 69.2726C100.922 74.2097 98.9876 78.8763 96.2564 83.1427C95.5664 84.2213 95.7143 85.6045 96.6162 86.5069L102.096 91.9866C102.871 92.7612 103.297 93.7913 103.297 94.8867C103.297 95.9822 102.871 97.0123 102.096 97.7871L97.7869 102.096C96.2588 103.685 93.5145 103.689 91.9868 102.096L86.5069 96.6162C85.6041 95.7141 84.2208 95.5662 83.1427 96.2566C78.8763 98.9873 74.2099 100.922 69.2728 102.006C68.0219 102.281 67.1487 103.364 67.1487 104.639V112.383C67.1487 114.644 65.3086 116.484 63.0471 116.484H56.9534C54.6919 116.484 52.8518 114.644 52.8518 112.383V104.639C52.8518 103.363 51.9783 102.281 50.7277 102.006C45.7908 100.922 41.1241 98.9873 36.858 96.2564C35.7795 95.5662 34.3962 95.7136 33.4934 96.6162L28.0141 102.096C27.2393 102.87 26.2092 103.297 25.1138 103.297C24.018 103.297 22.9882 102.87 22.2136 102.096L17.9044 97.7869C16.3158 96.258 16.3118 93.5145 17.9046 91.9863L23.3845 86.5064C24.2864 85.6043 24.4343 84.221 23.7438 83.1422C21.0129 78.8761 19.0786 74.2097 17.9941 69.2726C17.7195 68.0219 16.6369 67.1484 15.3612 67.1484H7.61719C5.3557 67.1484 3.51562 65.3084 3.51562 63.0469V56.9531C3.51562 54.6916 5.3557 52.8516 7.61719 52.8516H15.3607C16.6364 52.8516 17.719 51.978 17.9937 50.7274C19.0781 45.7903 21.0124 41.1237 23.7436 36.8573C24.4336 35.7787 24.2857 34.3955 23.3838 33.4931L17.9039 28.0134C16.3153 26.4884 16.3113 23.7384 17.9041 22.2129L22.2131 17.9039C23.812 16.3048 26.4145 16.305 28.0134 17.9039L33.4931 23.3838C34.3959 24.2859 35.7792 24.4336 36.8573 23.7434C41.1237 21.0127 45.7901 19.0781 50.7272 17.9939C51.978 17.7192 52.8513 16.6364 52.8513 15.3609V7.61719C52.8513 5.3557 54.6914 3.51562 56.9529 3.51562H63.0466C65.3081 3.51562 67.1482 5.3557 67.1482 7.61719V15.3609C67.1482 16.6366 68.0217 17.7192 69.2723 17.9939C70.1416 18.1847 71.0175 18.4062 71.8753 18.652C72.8081 18.9197 73.7817 18.3797 74.0491 17.4462C74.3166 16.5129 73.7768 15.5395 72.8433 15.2723C72.1245 15.0663 71.3934 14.8763 70.6634 14.7049V7.61719C70.6641 3.41719 67.2471 0 63.0469 0H56.9531C52.7529 0 49.3359 3.41719 49.3359 7.61719V14.7047C44.4394 15.8522 39.7959 17.7771 35.5151 20.434L30.4995 15.4181C27.5295 12.4484 22.6971 12.4486 19.7271 15.4181L15.4184 19.7271C12.4634 22.5621 12.4631 27.6645 15.4181 30.4995L20.434 35.5153C17.7773 39.7957 15.8522 44.4394 14.7047 49.3359H7.61719C3.41695 49.3359 0 52.7531 0 56.9531V63.0469C0 67.2469 3.41695 70.6641 7.61719 70.6641H14.7047C15.8522 75.5609 17.7771 80.2043 20.434 84.4847L15.4184 89.5005C13.9793 90.9391 13.1871 92.8521 13.1871 94.8867C13.1871 96.9213 13.9793 98.8343 15.4181 100.273L19.7271 104.582C22.5623 107.536 27.6642 107.537 30.4997 104.582L35.5151 99.566C39.7959 102.223 44.4394 104.148 49.3359 105.295V112.383C49.3359 116.583 52.7529 120 56.9531 120H63.0469C67.2471 120 70.6641 116.583 70.6641 112.383V105.295C75.5606 104.148 80.2041 102.223 84.4849 99.566L89.5005 104.582C90.9394 106.02 92.8521 106.813 94.8865 106.813C96.9213 106.813 98.8341 106.02 100.273 104.582L104.581 100.273C107.536 97.4379 107.537 92.3355 104.582 89.5005L99.5658 84.4847C102.223 80.2041 104.148 75.5604 105.295 70.6641H112.383C116.583 70.6641 120 67.2469 120 63.0469V56.9531C120 52.7531 116.583 49.3359 112.383 49.3359Z" fill="#E44F39" stroke="#E44F39" stroke-width="1" stroke-linecap="round" stroke-linejoin="round"></path><path opacity="0.2" d="M50.6056 93.3155C50.3909 94.2624 50.9841 95.2039 51.931 95.4185C54.5626 96.0155 57.2774 96.3183 59.9994 96.3183C80.0253 96.3183 96.3177 80.026 96.3177 60C94.4938 11.8908 25.5024 11.8922 23.6811 60.0005C23.5571 73.4939 31.5763 86.4577 43.6402 92.4335C45.7534 93.4144 47.2637 90.4081 45.2258 89.2957C34.1052 83.6759 27.1967 72.4505 27.1967 59.9998C28.8409 16.5511 91.1572 16.5464 92.802 60.0003C93.0594 80.7511 72.853 96.8049 52.7084 91.9896C51.7618 91.7752 50.8206 92.3686 50.6056 93.3155Z" fill="white"></path><path d="M61.6816 53.3308C64.0015 53.2631 64.0071 49.8857 61.6816 49.8152H54.5801C53.6091 49.8152 52.8223 50.6022 52.8223 51.573V68.4267C52.8223 69.3975 53.6091 70.1845 54.5801 70.1845H61.6816C62.6527 70.1845 63.4395 69.3975 63.4395 68.4267C63.4395 67.4559 62.6527 66.6689 61.6816 66.6689H56.3379V61.7578H61.1578C62.1288 61.7578 62.9156 60.9707 62.9156 60C62.9156 59.0292 62.1288 58.2421 61.1578 58.2421H56.3379V53.3308H61.6816Z" fill="white"></path><path d="M42.1695 66.7467C40.377 66.7467 38.648 66.0199 37.5446 64.8028C36.8928 64.0833 35.7811 64.0291 35.0616 64.6807C34.3425 65.3327 34.2877 66.4444 34.9397 67.1637C36.6982 69.1038 39.4008 70.2623 42.1695 70.2623C45.5204 70.2623 48.4416 68.0548 48.964 65.1272C49.3613 62.9025 48.3329 59.9892 44.2547 58.485C42.1062 57.6923 40.11 56.828 39.5621 56.5875C38.5259 55.762 38.7497 54.0213 40.5811 53.4459C43.1806 52.6634 45.5518 54.5555 45.6017 54.596C46.3449 55.2136 47.4483 55.1161 48.0708 54.3752C48.6954 53.6323 48.5996 52.5234 47.8564 51.8986C47.7019 51.7687 44.0241 48.7369 39.5672 50.0798C37.3578 50.7452 35.7957 52.481 35.49 54.6094C35.1917 56.6728 36.154 58.7306 37.9822 59.733C38.0801 59.7766 40.4115 60.8145 43.0381 61.7834C44.7982 62.4326 45.6966 63.4261 45.5035 64.5091C45.3071 65.6091 44.0063 66.7467 42.1695 66.7467Z" fill="white"></path><path d="M85.516 60C85.516 54.3413 80.9122 49.7377 75.2537 49.7377C61.6583 50.2535 61.6621 69.7484 75.2539 70.2621C80.9125 70.2624 85.516 65.6588 85.516 60ZM68.5072 60C68.5072 56.2798 71.5337 53.2533 75.2537 53.2533C84.1918 53.5924 84.1895 66.4088 75.2537 66.7465C71.5337 66.7467 68.5072 63.7202 68.5072 60Z" fill="white"></path><defs><clipPath id="clip0_240_1759"><rect width="120" height="120" fill="white"></rect></clipPath></defs></svg>