<svg xmlns="http://www.w3.org/2000/svg" width="20" height="20" viewBox="0 0 20 20"><path d="M17.5078 19.3578L16.1848 5.67495C16.1555 5.37456 15.9031 5.14526 15.6016 5.14526H4.39924C4.09768 5.14526 3.84533 5.37456 3.81604 5.67495L2.49299 19.3578C2.47698 19.5222 2.53127 19.6855 2.64221 19.8078C2.75354 19.93 2.91096 19.9999 3.07619 19.9999H16.9246C17.0899 19.9999 17.2473 19.93 17.3586 19.8078C17.4696 19.6855 17.5239 19.5222 17.5078 19.3578ZM12.05 14.225C12.0563 15.1003 11.4145 15.8203 10.5863 15.9492V16.5988C10.5863 16.9222 10.3239 17.1847 10.0004 17.1847C9.67697 17.1847 9.41447 16.9222 9.41447 16.5988V15.9519C8.59299 15.8203 7.96096 15.1093 7.95549 14.2503C7.95354 13.9269 8.21447 13.6628 8.53791 13.6609H8.54143C8.8633 13.6609 9.12541 13.921 9.12737 14.2433C9.12932 14.5519 9.38127 14.8019 9.68947 14.8019H9.69299C10.3352 14.798 10.5102 14.8394 10.7164 14.6308C10.9598 14.3843 10.9223 13.9785 10.6504 13.7777L8.65315 12.2992C8.2133 11.9738 7.95041 11.4527 7.95041 10.9054C7.95041 10.0414 8.58635 9.323 9.41447 9.19292V8.54683C9.41447 8.223 9.67697 7.96089 10.0004 7.96089C10.3239 7.96089 10.5863 8.223 10.5863 8.54683V9.19331C11.4125 9.32534 12.0461 10.0425 12.0461 10.9054C12.0461 11.2292 11.784 11.4914 11.4602 11.4914C11.1367 11.4914 10.8742 11.2292 10.8742 10.9054C10.8742 10.5957 10.6223 10.3433 10.3125 10.3433H9.6844C9.14416 10.3433 8.91643 11.0363 9.35002 11.3574L11.3477 12.8355C11.784 13.1585 12.0465 13.675 12.05 14.2175V14.225Z" fill="#000"></path><path d="M13.2416 3.06719V3.97344H12.0697V3.06719C12.0697 2.02227 11.2193 1.17188 10.1744 1.17188H9.82598C8.78105 1.17188 7.93066 2.02227 7.93066 3.06719V3.97344H6.75879V3.06719C6.75879 1.37578 8.13457 0 9.82598 0H10.1744C11.8658 0 13.2416 1.37578 13.2416 3.06719Z" fill="#000"></path></svg>