<svg xmlns="http://www.w3.org/2000/svg" width="20" height="20" viewBox="0 0 20 20"><path d="M3.55469 3.51562V18.0941C3.55469 19.1528 4.41727 20 5.46055 20H14.5395C15.5904 20 16.4453 19.1451 16.4453 18.0941V3.51562H3.55469ZM5.78125 5.90312C5.78125 5.57969 6.04336 5.31719 6.36719 5.31719H8.71094C9.03438 5.31719 9.29688 5.57969 9.29688 5.90312V8.24687C9.29688 8.57031 9.03438 8.83281 8.71094 8.83281H6.36719C6.04336 8.83281 5.78125 8.57031 5.78125 8.24687V5.90312ZM5.78125 13.7156V11.3719C5.78125 11.0484 6.04336 10.7859 6.36719 10.7859H8.71094C9.03438 10.7859 9.29688 11.0484 9.29688 11.3719V13.7156C9.29688 14.0391 9.03438 14.3016 8.71094 14.3016H6.36719C6.04336 14.3016 5.78125 14.0391 5.78125 13.7156ZM10.8441 18.8109H9.15586C8.83242 18.8109 8.56992 18.5488 8.56992 18.225C8.56992 17.9016 8.83242 17.6391 9.15586 17.6391H10.8441C11.1676 17.6391 11.4301 17.9016 11.4301 18.225C11.4301 18.5488 11.1676 18.8109 10.8441 18.8109ZM14.2188 13.7156C14.2188 14.0391 13.9563 14.3016 13.6328 14.3016H11.2891C10.9652 14.3016 10.7031 14.0391 10.7031 13.7156V11.3719C10.7031 11.0484 10.9652 10.7859 11.2891 10.7859H13.6328C13.9563 10.7859 14.2188 11.0484 14.2188 11.3719V13.7156ZM14.2188 8.24687C14.2188 8.57031 13.9563 8.83281 13.6328 8.83281H11.2891C10.9652 8.83281 10.7031 8.57031 10.7031 8.24687V5.90312C10.7031 5.57969 10.9652 5.31719 11.2891 5.31719H13.6328C13.9563 5.31719 14.2188 5.57969 14.2188 5.90312V8.24687Z" fill="#000"></path><path d="M11.875 11.9578H13.0469V13.1296H11.875V11.9578Z" fill="#000"></path><path d="M6.95312 6.48901H8.125V7.66089H6.95312V6.48901Z" fill="#000"></path><path d="M6.95312 11.9578H8.125V13.1296H6.95312V11.9578Z" fill="#000"></path><path d="M11.875 6.48901H13.0469V7.66089H11.875V6.48901Z" fill="#000"></path><path d="M14.5395 0C14.1706 0 5.85535 0 5.46055 0C4.42227 0 3.55469 0.867969 3.55469 1.90586V2.34375H16.4453V1.90586C16.4453 0.853125 15.5938 0 14.5395 0Z" fill="#000"></path></svg>