<svg xmlns="http://www.w3.org/2000/svg" width="20" height="20" viewBox="0 0 20 20"><g clip-path="url(#clip0_235_558)"><path d="M16.0982 3.58041C15.3225 2.80092 14.2911 2.36932 13.1917 2.36475C12.865 2.36354 12.5993 2.62698 12.5977 2.95338C12.5964 3.2801 12.8599 3.54577 13.1866 3.54702C13.9721 3.55057 14.7095 3.85975 15.2632 4.41788C15.2637 4.41819 15.2642 4.41889 15.2647 4.4192C15.8185 4.97811 16.1215 5.71866 16.1177 6.50506C16.116 6.83147 16.3795 7.09752 16.706 7.09924C16.747 7.0994 16.7876 7.09526 16.8262 7.08745C17.0955 7.03311 17.2986 6.79635 17.3001 6.51096C17.3053 5.4087 16.8807 4.37022 16.1047 3.58678C16.1027 3.58475 16.1006 3.58237 16.0982 3.58041Z" fill="#000"></path><path d="M17.7842 1.92227C17.7787 1.91696 17.7731 1.91126 17.7676 1.90591C16.5491 0.685046 14.929 0.00793695 13.2026 7.26395e-06C12.8758 -0.0015943 12.6101 0.261843 12.6084 0.588289C12.6067 0.914695 12.8702 1.18075 13.1966 1.18247C14.6099 1.18884 15.936 1.74313 16.9326 2.74341C16.9366 2.74704 16.9402 2.75114 16.9441 2.75473C17.9422 3.76196 18.4883 5.09759 18.4821 6.51606C18.4809 6.84278 18.7443 7.10844 19.0707 7.10977C19.1117 7.10993 19.152 7.10622 19.191 7.09837C19.4602 7.04403 19.6633 6.80688 19.6644 6.52122C19.672 4.78719 19.0043 3.15364 17.7842 1.92227Z" fill="#000"></path><path d="M5.3999 17.8636L4.00459 19.2617C3.79904 19.4637 3.54814 19.432 3.40029 19.2835C1.52588 17.4062 2.32732 18.209 0.454981 16.3332C0.295215 16.173 0.294824 15.9136 0.45459 15.7535L1.86904 14.3328L5.3999 17.8636Z" fill="#000"></path><path d="M12.8551 18.7848L11.7805 19.861C11.5953 20.0461 11.2949 20.0465 11.1098 19.8614L8.78711 17.5426L10.5336 15.7961L12.8547 18.1137C13.0402 18.2989 13.0402 18.5993 12.8551 18.7848Z" fill="#000"></path><path d="M10.1766 14.4938C6.81004 17.8662 7.02566 17.6637 6.91914 17.7254L1.97656 12.7828C2.03785 12.6798 1.8298 12.9007 5.20391 9.52112L10.1766 14.4938Z" fill="#000"></path><path d="M17.1312 12.4621L11.2793 13.9398L5.75391 8.41442L7.22109 2.56715C7.33672 2.02184 8.01094 1.82223 8.40586 2.21559C14.2032 8.00496 11.6692 5.47469 17.4805 11.2769C17.875 11.6711 17.6766 12.3453 17.1312 12.4621Z" fill="#000"></path></g><defs><clipPath id="clip0_235_558"><rect width="20" height="20" fill="white"></rect></clipPath></defs></svg>