<svg xmlns="http://www.w3.org/2000/svg" viewBox="-5.0 -10.0 110.0 135.0"><path d="m7.1562 5.0312h67.594c2.5 0.007812 4.5234 2.0312 4.5273 4.5273v11.883c-0.003906 2.5-2.0273 4.5234-4.5273 4.5273h-5.6367v7.7891h5.6406-0.003906c2.5 0.003907 4.5234 2.0312 4.5273 4.5273v11.887c-0.003906 2.5-2.0273 4.5234-4.5273 4.5273h-5.6367v5.9688c0.51562-0.13672 1.0234-0.30078 1.5234-0.49609 2.9531-1.1445 5.4453-3.2344 7.0898-5.9375 0.20313-0.33203 0.5625-0.53125 0.94922-0.53125 0.39062 0.003906 0.74609 0.20703 0.94531 0.53906 1.6484 2.7031 4.1406 4.7891 7.0898 5.9336 2.9531 1.1445 6.1992 1.2852 9.2383 0.39844 0.58594-0.16797 1.1953 0.16797 1.3672 0.75391 0.03125 0.10156 0.042969 0.20703 0.042969 0.30859v14.805c0 0.046875 0 0.097656-0.007813 0.14453-0.17187 4.6953-2.2266 9.125-5.707 12.281-3.2383 2.9375-7.6406 4.8555-12.723 6.0703-0.17578 0.042969-0.35938 0.042969-0.53516 0-5.0742-1.2148-9.4727-3.1289-12.703-6.0625l0.003906-0.003906c-1.6992-1.5195-3.0703-3.3711-4.0352-5.4375h-54.496c-2.4961-0.003906-4.5195-2.0273-4.5234-4.5234v-11.891c0-2.5 2.0273-4.5234 4.5234-4.5273h5.6406v-7.7891h-5.6406c-2.4961-0.003906-4.5195-2.0273-4.5234-4.5273v-11.887c0-2.5 2.0273-4.5234 4.5234-4.5273h5.6406v-7.7891h-5.6406c-2.4961-0.003906-4.5195-2.0273-4.5234-4.5234v-11.891c0.003907-2.4961 2.0273-4.5195 4.5234-4.5234zm63.285 71.012 4.5391 4.543h0.003906c0.71094 0.71094 1.8672 0.71094 2.582 0l9.3359-9.3359v-0.003906c0.43359-0.43359 0.43359-1.1367 0-1.5664-0.43359-0.43359-1.1367-0.43359-1.5703 0l-9.0586 9.0586-4.2617-4.2656c-0.43359-0.43359-1.1367-0.43359-1.5703 0s-0.43359 1.1367 0 1.5703zm8.2305 13.516c3.3477-0.74219 6.4805-2.2344 9.168-4.3672 2.5781-2.2422 4.1133-5.4531 4.2461-8.8672v-9.8945c-4.957 0.039062-9.7461-1.793-13.414-5.125-3.668 3.332-8.4531 5.1602-13.41 5.125v9.8945c0.13281 3.4141 1.668 6.625 4.2461 8.8672 2.6836 2.1328 5.8203 3.625 9.168 4.3672zm10.625-2.6914c3.043-2.6406 4.8555-6.4258 5.0039-10.453v-0.074218-11.062c0-0.29297-0.11719-0.57422-0.32422-0.78516-0.21094-0.20703-0.49219-0.32422-0.78516-0.32422-0.046875 0-0.09375 0.003906-0.14062 0.007812-5.0664 0.32812-10.027-1.5664-13.59-5.1875-0.20313-0.20703-0.48438-0.32812-0.78125-0.33203-0.29297 0-0.57422 0.11328-0.78516 0.32031l-0.015625 0.011719h0.003906c-3.582 3.6367-8.5703 5.5312-13.66 5.1836-0.29297-0.019531-0.58203 0.078125-0.80469 0.27344-0.21875 0.19141-0.35547 0.46484-0.375 0.76172v0.074219 11.059c0 0.050781 0.003906 0.097656 0.007812 0.14844 0.16406 4 1.9766 7.7578 5 10.379 3.0234 2.4141 6.5664 4.0977 10.352 4.9141 0.18359 0.046875 0.37891 0.046875 0.56641 0 3.7773-0.81641 7.3125-2.4961 10.332-4.9102zm-22.406-25.789v-6.3789h-3.5234v6.3047c1.168 0.16797 2.3477 0.19141 3.5195 0.070313zm-5.7383-0.55078v-5.8281h-40.395v7.7891h39.219v-0.85547 0.003907c0-0.61328 0.49609-1.1094 1.1094-1.1094zm-1.1758 4.1836-52.82-0.003907c-1.2695 0.007813-2.2969 1.0352-2.3047 2.3086v11.887c0.007813 1.2695 1.0352 2.3008 2.3047 2.3047h53.656c-0.46094-1.5273-0.73828-3.1016-0.83203-4.6953v-0.070313-0.070312h-10.902c-0.61328 0-1.1133-0.49609-1.1133-1.1094s0.5-1.1094 1.1133-1.1094h10.898v-2.3828h-10.898c-0.30078 0.007813-0.59375-0.10547-0.80859-0.3125-0.21484-0.21094-0.33594-0.49609-0.33594-0.79688 0-0.30078 0.12109-0.58984 0.33594-0.79688 0.21484-0.21094 0.50781-0.32422 0.80859-0.3125h10.898v-4.8438zm7.207 22.516c2.8867 2.6211 6.8672 4.3633 11.488 5.4961 4.6211-1.1328 8.5977-2.875 11.488-5.4961v-0.003906c3.0469-2.7773 4.8477-6.668 4.9883-10.793v-13.379c-3.0586 0.60547-6.2227 0.33984-9.1367-0.76953-2.9141-1.1094-5.457-3.0156-7.3398-5.5-1.8828 2.4844-4.4258 4.3906-7.3359 5.5-2.9141 1.1094-6.082 1.375-9.1406 0.76953v13.383c0.14453 4.125 1.9414 8.0156 4.9883 10.793zm-38.113-19.734c-2.6094 0-4.8594 1.8438-5.3711 4.4062-0.50781 2.5586 0.85938 5.125 3.2734 6.125 2.4141 1 5.1953 0.15625 6.6484-2.0156 1.4492-2.1719 1.1641-5.0664-0.68359-6.9141-1.0234-1.0273-2.4141-1.6016-3.8672-1.6016zm2.2969 3.1719c-1.0938-1.0977-2.8125-1.2695-4.1016-0.41016-1.293 0.85938-1.7969 2.5078-1.207 3.9453 0.59375 1.4336 2.1172 2.25 3.6367 1.9492 1.5234-0.30078 2.6172-1.6367 2.6211-3.1875 0-0.85938-0.33984-1.6875-0.94922-2.2969zm-14.406-3.1719c-2.6094 0-4.8555 1.8438-5.3633 4.4023-0.51172 2.5586 0.85938 5.1211 3.2695 6.1172 2.4102 1 5.1914 0.15625 6.6406-2.0117 1.4492-2.168 1.1641-5.0586-0.67969-6.9062-1.0234-1.0273-2.418-1.6016-3.8672-1.6016zm2.2969 3.1719c-1.0938-1.0977-2.8125-1.2695-4.1016-0.41016s-1.793 2.5078-1.2031 3.9414c0.59375 1.4336 2.1133 2.2461 3.6328 1.9453 1.5195-0.29688 2.6172-1.6289 2.6172-3.1797 0.003906-0.85938-0.33594-1.6875-0.94531-2.2969zm29.82-27.625h20.23c0.59766-0.015624 1.0742-0.50781 1.0742-1.1094 0-0.60156-0.47656-1.0898-1.0742-1.1094h-20.23c-0.30078-0.007812-0.59375 0.10156-0.80859 0.3125-0.21484 0.21094-0.33594 0.49609-0.33594 0.79688 0 0.30078 0.12109 0.58984 0.33594 0.79687 0.21484 0.21094 0.50781 0.32422 0.80859 0.3125zm0 4.6016 20.23 0.003906c0.61328 0 1.1094-0.5 1.1094-1.1133s-0.49609-1.1094-1.1094-1.1094h-20.23c-0.61328 0-1.1133 0.49609-1.1133 1.1094s0.5 1.1133 1.1133 1.1133zm-20-8.8789c-2.6133 0-4.8633 1.8438-5.3711 4.4062-0.51172 2.5625 0.85938 5.125 3.2695 6.125 2.4141 1 5.1992 0.15625 6.6484-2.0156s1.1641-5.0664-0.68359-6.9102c-1.0234-1.0312-2.4141-1.6055-3.8633-1.6055zm2.2891 3.1719c-1.0938-1.0977-2.8125-1.2695-4.1016-0.41016-1.2891 0.85937-1.793 2.5117-1.2031 3.9453s2.1133 2.2461 3.6328 1.9453c1.5234-0.29687 2.6172-1.6328 2.6211-3.1836 0-0.85938-0.33984-1.6875-0.94922-2.2969zm-14.406-3.1719c-2.6094 0-4.8555 1.8438-5.3633 4.4023-0.51172 2.5586 0.85938 5.1211 3.2695 6.1211 2.4102 0.99609 5.1914 0.15234 6.6406-2.0156 1.4492-2.168 1.1641-5.0586-0.67969-6.9023-1.0234-1.0312-2.418-1.6055-3.8672-1.6055zm2.2969 3.1719c-1.0938-1.0938-2.8086-1.2656-4.0977-0.41016-1.2891 0.85937-1.793 2.5078-1.2031 3.9414 0.58984 1.4297 2.1094 2.2461 3.6289 1.9453 1.5195-0.29688 2.6172-1.6289 2.6172-3.1797 0.003906-0.85938-0.33594-1.6875-0.94531-2.2969zm29.82-27.617h20.23c0.59766-0.019531 1.0742-0.51172 1.0742-1.1094 0-0.60156-0.47656-1.0938-1.0742-1.1094h-20.23c-0.30078-0.011718-0.59375 0.10156-0.80859 0.3125-0.21484 0.20703-0.33594 0.49609-0.33594 0.79688s0.12109 0.58594 0.33594 0.79688c0.21484 0.20703 0.50781 0.32031 0.80859 0.3125zm0 4.6016h20.23c0.61328 0 1.1094-0.49609 1.1094-1.1094 0-0.61328-0.49609-1.1094-1.1094-1.1094h-20.23c-0.61328 0-1.1133 0.49609-1.1133 1.1094 0 0.61328 0.5 1.1094 1.1133 1.1094zm-20-8.8789c-2.6094 0-4.8555 1.8438-5.3633 4.4023-0.51172 2.5586 0.85938 5.1211 3.2695 6.1172 2.4102 1 5.1914 0.15625 6.6406-2.0156 1.4492-2.168 1.1641-5.0586-0.68359-6.9023-1.0234-1.0273-2.4141-1.6055-3.8633-1.6016zm2.2891 3.168c-1.0938-1.1016-2.8125-1.2734-4.1016-0.41406s-1.793 2.5117-1.2031 3.9453c0.58984 1.4336 2.1133 2.25 3.6328 1.9492 1.5234-0.30078 2.6172-1.6367 2.6211-3.1836 0-0.86328-0.33984-1.6875-0.94922-2.2969zm-14.406-3.1719c-2.6094 0-4.8516 1.8438-5.3594 4.3984-0.50781 2.5586 0.85938 5.1211 3.2695 6.1172 2.4102 0.99609 5.1875 0.15234 6.6367-2.0156 1.4492-2.168 1.1641-5.0547-0.67969-6.9023-1.0273-1.0234-2.418-1.6016-3.8672-1.5977zm2.2969 3.1719c-1.0938-1.0977-2.8086-1.2695-4.0977-0.41016-1.2891 0.85547-1.793 2.5078-1.2031 3.9375 0.58984 1.4336 2.1094 2.2461 3.6289 1.9492 1.5195-0.30078 2.6172-1.6328 2.6172-3.1797 0.003906-0.86328-0.33594-1.6914-0.94531-2.2969zm47.633 12.762h-3.5234v7.7891h3.5195v-7.7891zm-5.7383 0h-40.395v7.7891l40.395 0.003907zm-42.613 0h-3.5195v7.7891l3.5156 0.003907v-7.7891zm0 28.73h-3.5195v7.7891h3.5156v-7.7891zm56.211-18.719-67.594 0.003906c-1.2695 0.003906-2.2969 1.0352-2.3047 2.3047v11.883c0.007813 1.2734 1.0352 2.3008 2.3047 2.3086h67.594c1.2695-0.007813 2.2969-1.0391 2.3008-2.3086v-11.883c-0.003906-1.2695-1.0312-2.3008-2.3047-2.3047zm0-28.73-67.594 0.003906c-1.2695 0.003906-2.2969 1.0352-2.3047 2.3047v11.883c0.007813 1.2734 1.0352 2.3008 2.3047 2.3086h67.594c1.2695-0.007812 2.2969-1.0352 2.3008-2.3086v-11.883c-0.003906-1.2695-1.0312-2.3008-2.3047-2.3047z" fill-rule="evenodd"></path><text x="0.0" y="117.5" font-size="5.0" font-weight="bold" font-family="Arbeit Regular, Helvetica, Arial-Unicode, Arial, Sans-serif" fill="#000000">Created by putrakali735</text><text x="0.0" y="122.5" font-size="5.0" font-weight="bold" font-family="Arbeit Regular, Helvetica, Arial-Unicode, Arial, Sans-serif" fill="#000000">from Noun Project</text></svg>