<?xml version="1.0" encoding="utf-8"?>
<!-- Generator: Adobe Illustrator 16.0.0, SVG Export Plug-In . SVG Version: 6.00 Build 0)  -->
<!DOCTYPE svg PUBLIC "-//W3C//DTD SVG 1.1//EN" "http://www.w3.org/Graphics/SVG/1.1/DTD/svg11.dtd">
<svg version="1.1" id="Layer_1" xmlns="http://www.w3.org/2000/svg" xmlns:xlink="http://www.w3.org/1999/xlink" x="0px" y="0px"
	 width="18px" height="18px" viewBox="0 0 18 18" enable-background="new 0 0 18 18" xml:space="preserve">
<g>
	<path fill="#888888" d="M16.579,18H1.421C0.637,18,0,17.363,0,16.579V1.421C0,0.638,0.637,0,1.421,0h15.158
		C17.362,0,18,0.638,18,1.421v15.158C18,17.363,17.362,18,16.579,18z M1.421,0.947c-0.262,0-0.474,0.213-0.474,0.474v15.158
		c0,0.262,0.212,0.474,0.474,0.474h15.158c0.261,0,0.474-0.212,0.474-0.474V1.421c0-0.261-0.213-0.474-0.474-0.474H1.421z"/>
</g>
<g>
	<path fill="#888888" d="M6.066,5.85v6.3H5.418V6.426H3.933V5.85H6.066z"/>
	<path fill="#888888" d="M8.127,5.85h2.564c0.666,0,1.254,0.133,1.765,0.4c0.51,0.267,0.905,0.639,1.188,1.116
		C13.926,7.843,14.066,8.388,14.066,9c0,0.612-0.141,1.156-0.422,1.633c-0.283,0.478-0.679,0.85-1.188,1.117
		c-0.511,0.266-1.099,0.4-1.765,0.4H8.127V5.85z M10.656,11.574c0.552,0,1.035-0.109,1.449-0.328c0.414-0.22,0.734-0.522,0.963-0.91
		C13.296,9.949,13.41,9.504,13.41,9s-0.114-0.95-0.342-1.336c-0.229-0.387-0.549-0.69-0.963-0.909
		c-0.414-0.219-0.897-0.329-1.449-0.329H8.793v5.148H10.656z"/>
</g>
</svg>
