<?xml version="1.0" encoding="utf-8"?>
<!-- Generator: Adobe Illustrator 16.0.0, SVG Export Plug-In . SVG Version: 6.00 Build 0)  -->
<!DOCTYPE svg PUBLIC "-//W3C//DTD SVG 1.1//EN" "http://www.w3.org/Graphics/SVG/1.1/DTD/svg11.dtd">
<svg version="1.1" id="Layer_1" xmlns="http://www.w3.org/2000/svg" xmlns:xlink="http://www.w3.org/1999/xlink" x="0px" y="0px"
	 width="18px" height="18px" viewBox="0 0 18 18" enable-background="new 0 0 18 18" xml:space="preserve">
<g>
	<path fill="#888888" d="M16.579,18H1.421C0.637,18,0,17.363,0,16.579V1.421C0,0.638,0.637,0,1.421,0h15.158
		C17.362,0,18,0.638,18,1.421v15.158C18,17.363,17.362,18,16.579,18z M1.421,0.947c-0.262,0-0.474,0.213-0.474,0.474v15.158
		c0,0.262,0.212,0.474,0.474,0.474h15.158c0.261,0,0.474-0.212,0.474-0.474V1.421c0-0.261-0.213-0.474-0.474-0.474H1.421z"/>
</g>
<g>
	<path fill="#888888" d="M4.711,5.85v6.3H4.063V6.426H2.579V5.85H4.711z"/>
	<path fill="#888888" d="M15.422,5.85l-2.125,6.3h-0.701L10.75,6.777L8.896,12.15H8.204L6.08,5.85h0.684l1.818,5.417l1.881-5.417
		h0.621l1.854,5.445l1.846-5.445H15.422z"/>
</g>
</svg>
