<?xml version="1.0" encoding="utf-8"?>
<!-- Generator: Adobe Illustrator 16.0.0, SVG Export Plug-In . SVG Version: 6.00 Build 0)  -->
<!DOCTYPE svg PUBLIC "-//W3C//DTD SVG 1.1//EN" "http://www.w3.org/Graphics/SVG/1.1/DTD/svg11.dtd">
<svg version="1.1" id="Layer_1" xmlns="http://www.w3.org/2000/svg" xmlns:xlink="http://www.w3.org/1999/xlink" x="0px" y="0px"
	 width="18px" height="18px" viewBox="0 0 18 18" enable-background="new 0 0 18 18" xml:space="preserve">
<g>
	<path fill="#888888" d="M16.579,18H1.421C0.637,18,0,17.363,0,16.579V1.421C0,0.638,0.637,0,1.421,0h15.158
		C17.362,0,18,0.638,18,1.421v15.158C18,17.363,17.362,18,16.579,18z M1.421,0.947c-0.262,0-0.474,0.213-0.474,0.474v15.158
		c0,0.262,0.212,0.474,0.474,0.474h15.158c0.261,0,0.474-0.212,0.474-0.474V1.421c0-0.261-0.213-0.474-0.474-0.474H1.421z"/>
</g>
<g>
	<path fill="#888888" d="M6.755,9.059c0.345,0.32,0.517,0.739,0.517,1.255c0,0.36-0.087,0.68-0.261,0.959s-0.432,0.499-0.773,0.661
		c-0.343,0.162-0.76,0.243-1.251,0.243c-0.456,0-0.887-0.073-1.292-0.221c-0.405-0.146-0.73-0.343-0.977-0.589l0.315-0.514
		c0.21,0.216,0.488,0.392,0.837,0.526c0.348,0.136,0.72,0.203,1.116,0.203c0.516,0,0.914-0.112,1.196-0.338
		c0.282-0.225,0.424-0.535,0.424-0.932c0-0.39-0.142-0.695-0.424-0.918C5.9,9.174,5.475,9.063,4.905,9.063h-0.45V8.586l1.746-2.188
		H2.979V5.823h4.051v0.459l-1.782,2.24C5.907,8.559,6.409,8.737,6.755,9.059z"/>
	<path fill="#888888" d="M15.282,5.823v6.3h-0.639v-5.04l-2.476,4.239h-0.314L9.378,7.109v5.014H8.739v-6.3h0.549l2.736,4.671
		l2.709-4.671H15.282z"/>
</g>
</svg>
