<?xml version="1.0" encoding="utf-8"?>
<!-- Generator: Adobe Illustrator 16.0.0, SVG Export Plug-In . SVG Version: 6.00 Build 0)  -->
<!DOCTYPE svg PUBLIC "-//W3C//DTD SVG 1.1//EN" "http://www.w3.org/Graphics/SVG/1.1/DTD/svg11.dtd">
<svg version="1.1" id="Layer_1" xmlns="http://www.w3.org/2000/svg" xmlns:xlink="http://www.w3.org/1999/xlink" x="0px" y="0px"
	 width="18px" height="18px" viewBox="0 0 18 18" enable-background="new 0 0 18 18" xml:space="preserve">
<g>
	<path fill="#888888" d="M16.578,18H1.421C0.637,18,0,17.363,0,16.579V1.421C0,0.638,0.637,0,1.421,0h15.157
		C17.361,0,18,0.638,18,1.421v15.158C18,17.363,17.361,18,16.578,18z M1.421,0.947c-0.262,0-0.474,0.213-0.474,0.474v15.158
		c0,0.262,0.212,0.474,0.474,0.474h15.157c0.262,0,0.475-0.212,0.475-0.474V1.421c0-0.261-0.213-0.474-0.475-0.474H1.421z"/>
</g>
<g>
	<path fill="#888888" d="M6.078,10.263l-0.619,1.874H4.664l2.024-5.956h0.928l2.032,5.956H8.826l-0.636-1.874H6.078z M8.03,9.662
		L7.447,7.948C7.315,7.56,7.227,7.206,7.138,6.861H7.121C7.032,7.215,6.935,7.577,6.82,7.939L6.237,9.662H8.03z"/>
	<path fill="#888888" d="M10.473,5.863h0.777v6.273h-0.777V5.863z"/>
	<path fill="#888888" d="M12.559,5.863h0.777v6.273h-0.777V5.863z"/>
</g>
</svg>
